<svg width="128" height="30" viewBox="0 0 128 30" fill="none" xmlns="http://www.w3.org/2000/svg">
<path d="M45.344 19.224H49.024V21H43.104V9.832H45.344V19.224ZM58.6878 16.376C58.6878 16.696 58.6664 16.984 58.6238 17.24H52.1438C52.1971 17.88 52.4211 18.3813 52.8158 18.744C53.2104 19.1067 53.6958 19.288 54.2718 19.288C55.1038 19.288 55.6958 18.9307 56.0478 18.216H58.4638C58.2078 19.0693 57.7171 19.7733 56.9918 20.328C56.2664 20.872 55.3758 21.144 54.3198 21.144C53.4664 21.144 52.6984 20.9573 52.0158 20.584C51.3438 20.2 50.8158 19.6613 50.4318 18.968C50.0584 18.2747 49.8717 17.4747 49.8717 16.568C49.8717 15.6507 50.0584 14.8453 50.4318 14.152C50.8051 13.4587 51.3278 12.9253 51.9998 12.552C52.6718 12.1787 53.4451 11.992 54.3198 11.992C55.1624 11.992 55.9144 12.1733 56.5758 12.536C57.2478 12.8987 57.7651 13.416 58.1278 14.088C58.5011 14.7493 58.6878 15.512 58.6878 16.376ZM56.3678 15.736C56.3571 15.16 56.1491 14.7013 55.7438 14.36C55.3384 14.008 54.8424 13.832 54.2558 13.832C53.7011 13.832 53.2318 14.0027 52.8478 14.344C52.4744 14.6747 52.2451 15.1387 52.1598 15.736H56.3678ZM62.9308 13.976V18.264C62.9308 18.5627 63.0001 18.7813 63.1388 18.92C63.2881 19.048 63.5334 19.112 63.8748 19.112H64.9148V21H63.5068C61.6188 21 60.6748 20.0827 60.6748 18.248V13.976H59.6188V12.136H60.6748V9.944H62.9308V12.136H64.9148V13.976H62.9308ZM82.5144 9.832V21H80.2744V13.736L77.2824 21H75.5864L72.5784 13.736V21H70.3384V9.832H72.8824L76.4344 18.136L79.9864 9.832H82.5144ZM92.969 16.376C92.969 16.696 92.9477 16.984 92.905 17.24H86.425C86.4783 17.88 86.7023 18.3813 87.097 18.744C87.4917 19.1067 87.977 19.288 88.553 19.288C89.385 19.288 89.977 18.9307 90.329 18.216H92.745C92.489 19.0693 91.9983 19.7733 91.273 20.328C90.5477 20.872 89.657 21.144 88.601 21.144C87.7477 21.144 86.9797 20.9573 86.297 20.584C85.625 20.2 85.097 19.6613 84.713 18.968C84.3397 18.2747 84.153 17.4747 84.153 16.568C84.153 15.6507 84.3397 14.8453 84.713 14.152C85.0863 13.4587 85.609 12.9253 86.281 12.552C86.953 12.1787 87.7263 11.992 88.601 11.992C89.4437 11.992 90.1957 12.1733 90.857 12.536C91.529 12.8987 92.0463 13.416 92.409 14.088C92.7823 14.7493 92.969 15.512 92.969 16.376ZM90.649 15.736C90.6383 15.16 90.4303 14.7013 90.025 14.36C89.6197 14.008 89.1237 13.832 88.537 13.832C87.9823 13.832 87.513 14.0027 87.129 14.344C86.7557 14.6747 86.5263 15.1387 86.441 15.736H90.649ZM106.561 13.288C106.561 13.8853 106.417 14.4453 106.128 14.968C105.851 15.4907 105.409 15.912 104.801 16.232C104.203 16.552 103.446 16.712 102.529 16.712H100.657V21H98.4165V9.832H102.529C103.393 9.832 104.129 9.98133 104.737 10.28C105.345 10.5787 105.798 10.9893 106.097 11.512C106.406 12.0347 106.561 12.6267 106.561 13.288ZM102.433 14.904C103.051 14.904 103.51 14.7653 103.809 14.488C104.107 14.2 104.257 13.8 104.257 13.288C104.257 12.2 103.649 11.656 102.433 11.656H100.657V14.904H102.433ZM107.575 16.536C107.575 15.64 107.751 14.8453 108.103 14.152C108.466 13.4587 108.951 12.9253 109.559 12.552C110.178 12.1787 110.866 11.992 111.623 11.992C112.284 11.992 112.86 12.1253 113.351 12.392C113.852 12.6587 114.252 12.9947 114.551 13.4V12.136H116.807V21H114.551V19.704C114.263 20.12 113.863 20.4667 113.351 20.744C112.85 21.0107 112.268 21.144 111.607 21.144C110.86 21.144 110.178 20.952 109.559 20.568C108.951 20.184 108.466 19.6453 108.103 18.952C107.751 18.248 107.575 17.4427 107.575 16.536ZM114.551 16.568C114.551 16.024 114.444 15.56 114.231 15.176C114.018 14.7813 113.73 14.4827 113.367 14.28C113.004 14.0667 112.615 13.96 112.199 13.96C111.783 13.96 111.399 14.0613 111.047 14.264C110.695 14.4667 110.407 14.7653 110.183 15.16C109.97 15.544 109.863 16.0027 109.863 16.536C109.863 17.0693 109.97 17.5387 110.183 17.944C110.407 18.3387 110.695 18.6427 111.047 18.856C111.41 19.0693 111.794 19.176 112.199 19.176C112.615 19.176 113.004 19.0747 113.367 18.872C113.73 18.6587 114.018 18.36 114.231 17.976C114.444 17.5813 114.551 17.112 114.551 16.568ZM127.475 12.136L121.987 25.192H119.603L121.523 20.776L117.971 12.136H120.483L122.771 18.328L125.091 12.136H127.475Z" fill="#2F2F32"/>
<path d="M8.82422 25.5882V18.5294L15.0007 21.6176L21.1772 18.5294V10.5882L27.3536 7.05859V22.0588L15.0007 29.1176L8.82422 25.5882Z" fill="#0177FD"/>
<path d="M15.0004 7.05882L8.82393 10.5882V18.5294L2.64746 22.0588V7.05882L15.0004 0L21.1769 3.52941V10.5882L15.0004 7.05882Z" fill="#0177FD"/>
</svg>
